<svg width="379" height="143" viewBox="0 0 379 143" fill="none" xmlns="http://www.w3.org/2000/svg">
<path d="M0.8 2.4H45V104.8H115.6V140H0.8V2.4ZM197.242 37.6V140H153.042V37.6H107.842V2.4H242.242V37.6H197.242ZM314.178 -9.53674e-06C331.778 -9.53674e-06 346.245 3.59999 357.578 10.8C368.911 17.8667 374.711 28.4 374.978 42.4V44.8H333.578V44C333.578 40 332.111 36.6667 329.178 34C326.245 31.3333 321.778 30 315.778 30C309.911 30 305.378 30.8667 302.178 32.6C299.111 34.3333 297.578 36.4667 297.578 39C297.578 42.6 299.711 45.2667 303.978 47C308.245 48.7333 315.111 50.5333 324.578 52.4C335.645 54.6667 344.711 57.0667 351.778 59.6C358.978 62 365.245 66 370.578 71.6C375.911 77.2 378.645 84.8 378.778 94.4C378.778 110.667 373.245 122.733 362.178 130.6C351.245 138.467 336.578 142.4 318.178 142.4C296.711 142.4 279.978 138.8 267.978 131.6C256.111 124.4 250.178 111.667 250.178 93.4H291.978C291.978 100.333 293.778 105 297.378 107.4C300.978 109.667 306.578 110.8 314.178 110.8C319.778 110.8 324.378 110.2 327.978 109C331.711 107.8 333.578 105.333 333.578 101.6C333.578 98.2667 331.511 95.8 327.378 94.2C323.378 92.4667 316.778 90.6667 307.578 88.8C296.378 86.4 287.111 83.9333 279.778 81.4C272.445 78.7333 266.045 74.4 260.578 68.4C255.111 62.4 252.378 54.2667 252.378 44C252.378 28.9333 258.178 17.8667 269.778 10.8C281.511 3.59999 296.311 -9.53674e-06 314.178 -9.53674e-06Z" fill="white"/>
<path d="M0.8 2.4V-2.6C-1.96142 -2.6 -4.2 -0.361428 -4.2 2.4H0.8ZM45 2.4H50C50 -0.361428 47.7614 -2.6 45 -2.6V2.4ZM45 104.8H40C40 107.561 42.2386 109.8 45 109.8V104.8ZM115.6 104.8H120.6C120.6 102.039 118.361 99.8 115.6 99.8V104.8ZM115.6 140V145C118.361 145 120.6 142.761 120.6 140H115.6ZM0.8 140H-4.2C-4.2 142.761 -1.96142 145 0.8 145L0.8 140ZM0.8 7.4H45V-2.6H0.8V7.4ZM40 2.4V104.8H50V2.4H40ZM45 109.8H115.6V99.8H45V109.8ZM110.6 104.8V140H120.6V104.8H110.6ZM115.6 135H0.8V145H115.6V135ZM5.8 140V2.4H-4.2V140H5.8ZM197.242 37.6V32.6C194.481 32.6 192.242 34.8386 192.242 37.6H197.242ZM197.242 140V145C200.004 145 202.242 142.761 202.242 140H197.242ZM153.042 140H148.042C148.042 142.761 150.281 145 153.042 145V140ZM153.042 37.6H158.042C158.042 34.8386 155.804 32.6 153.042 32.6V37.6ZM107.842 37.6H102.842C102.842 40.3614 105.081 42.6 107.842 42.6V37.6ZM107.842 2.4V-2.6C105.081 -2.6 102.842 -0.361428 102.842 2.4H107.842ZM242.242 2.4H247.242C247.242 -0.361428 245.004 -2.6 242.242 -2.6V2.4ZM242.242 37.6V42.6C245.004 42.6 247.242 40.3614 247.242 37.6H242.242ZM192.242 37.6V140H202.242V37.6H192.242ZM197.242 135H153.042V145H197.242V135ZM158.042 140V37.6H148.042V140H158.042ZM153.042 32.6H107.842V42.6H153.042V32.6ZM112.842 37.6V2.4H102.842V37.6H112.842ZM107.842 7.4H242.242V-2.6H107.842V7.4ZM237.242 2.4V37.6H247.242V2.4H237.242ZM242.242 32.6H197.242V42.6H242.242V32.6ZM357.578 10.8L354.897 15.0203C354.909 15.0279 354.921 15.0354 354.933 15.0428L357.578 10.8ZM374.978 42.4H379.978C379.978 42.3682 379.978 42.3365 379.977 42.3048L374.978 42.4ZM374.978 44.8V49.8C377.74 49.8 379.978 47.5614 379.978 44.8H374.978ZM333.578 44.8H328.578C328.578 47.5614 330.817 49.8 333.578 49.8V44.8ZM329.178 34L332.541 30.3003L332.541 30.3003L329.178 34ZM302.178 32.6L299.797 28.2035C299.77 28.2179 299.744 28.2324 299.718 28.2472L302.178 32.6ZM303.978 47L305.86 42.3677L305.86 42.3677L303.978 47ZM324.578 52.4L325.581 47.5017C325.569 47.4992 325.557 47.4968 325.545 47.4945L324.578 52.4ZM351.778 59.6L350.091 64.3067C350.126 64.3193 350.161 64.3316 350.197 64.3434L351.778 59.6ZM370.578 71.6L374.199 68.1517L370.578 71.6ZM378.778 94.4H383.778C383.778 94.3769 383.778 94.3537 383.778 94.3306L378.778 94.4ZM362.178 130.6L359.281 126.525C359.273 126.53 359.266 126.536 359.258 126.541L362.178 130.6ZM267.978 131.6L265.384 135.875C265.392 135.879 265.399 135.883 265.406 135.887L267.978 131.6ZM250.178 93.4V88.4C247.417 88.4 245.178 90.6386 245.178 93.4H250.178ZM291.978 93.4H296.978C296.978 90.6386 294.74 88.4 291.978 88.4V93.4ZM297.378 107.4L294.605 111.56C294.641 111.584 294.677 111.608 294.714 111.631L297.378 107.4ZM327.978 109L326.448 104.24C326.431 104.245 326.414 104.251 326.397 104.257L327.978 109ZM327.378 94.2L325.39 98.7878C325.451 98.814 325.512 98.839 325.573 98.8628L327.378 94.2ZM307.578 88.8L306.53 93.689C306.548 93.6928 306.566 93.6965 306.584 93.7002L307.578 88.8ZM279.778 81.4L278.069 86.099C278.095 86.1082 278.12 86.1172 278.146 86.1259L279.778 81.4ZM260.578 68.4L256.882 71.7674L256.882 71.7674L260.578 68.4ZM269.778 10.8L272.379 15.07C272.384 15.0672 272.389 15.0644 272.393 15.0616L269.778 10.8ZM314.178 4.99999C331.118 4.99999 344.579 8.46527 354.897 15.0203L360.259 6.57964C347.911 -1.26529 332.438 -5.00001 314.178 -5.00001V4.99999ZM354.933 15.0428C364.749 21.1634 369.743 30.0885 369.979 42.4952L379.977 42.3048C379.68 26.7114 373.074 14.5699 360.224 6.5572L354.933 15.0428ZM369.978 42.4V44.8H379.978V42.4H369.978ZM374.978 39.8H333.578V49.8H374.978V39.8ZM338.578 44.8V44H328.578V44.8H338.578ZM338.578 44C338.578 38.6058 336.528 33.9243 332.541 30.3003L325.815 37.6997C327.695 39.409 328.578 41.3942 328.578 44H338.578ZM332.541 30.3003C328.314 26.457 322.402 25 315.778 25V35C321.154 35 324.176 36.2097 325.815 37.6997L332.541 30.3003ZM315.778 25C309.535 25 304.044 25.9027 299.797 28.2035L304.56 36.9965C306.712 35.8307 310.288 35 315.778 35V25ZM299.718 28.2472C295.771 30.4778 292.578 33.9913 292.578 39H302.578C302.578 38.8211 302.609 38.6682 302.788 38.4182C303.014 38.1046 303.532 37.5782 304.638 36.9528L299.718 28.2472ZM292.578 39C292.578 41.8691 293.458 44.5532 295.274 46.8235C297.029 49.017 299.436 50.5516 302.096 51.6323L305.86 42.3677C304.254 41.7151 303.461 41.0496 303.082 40.5765C302.765 40.1801 302.578 39.7309 302.578 39H292.578ZM302.096 51.6323C306.832 53.556 314.094 55.4289 323.611 57.3055L325.545 47.4945C316.129 45.6378 309.658 43.9106 305.86 42.3677L302.096 51.6323ZM323.575 57.2983C334.513 59.5386 343.329 61.8825 350.091 64.3067L353.465 54.8933C346.094 52.2509 336.777 49.7947 325.581 47.5017L323.575 57.2983ZM350.197 64.3434C356.606 66.4799 362.177 70.0285 366.957 75.0483L374.199 68.1517C368.313 61.9715 361.35 57.5201 353.359 54.8566L350.197 64.3434ZM366.957 75.0483C371.225 79.5289 373.658 85.8108 373.779 94.4694L383.778 94.3306C383.631 83.7891 380.598 74.8711 374.199 68.1517L366.957 75.0483ZM373.778 94.4C373.778 109.412 368.757 119.789 359.281 126.525L365.075 134.675C377.732 125.678 383.778 111.921 383.778 94.4H373.778ZM359.258 126.541C349.437 133.608 335.906 137.4 318.178 137.4V147.4C337.25 147.4 353.053 143.325 365.098 134.659L359.258 126.541ZM318.178 137.4C297.172 137.4 281.464 133.861 270.551 127.313L265.406 135.887C278.492 143.739 296.251 147.4 318.178 147.4V137.4ZM270.572 127.325C260.666 121.315 255.178 110.545 255.178 93.4H245.178C245.178 112.788 251.557 127.485 265.384 135.875L270.572 127.325ZM250.178 98.4H291.978V88.4H250.178V98.4ZM286.978 93.4C286.978 100.968 288.929 107.777 294.605 111.56L300.152 103.24C298.627 102.223 296.978 99.6985 296.978 93.4H286.978ZM294.714 111.631C299.521 114.658 306.278 115.8 314.178 115.8V105.8C306.878 105.8 302.435 104.675 300.042 103.169L294.714 111.631ZM314.178 115.8C320.085 115.8 325.269 115.174 329.559 113.743L326.397 104.257C323.487 105.226 319.471 105.8 314.178 105.8V115.8ZM329.508 113.76C332.091 112.93 334.464 111.516 336.165 109.267C337.883 106.997 338.578 104.324 338.578 101.6H328.578C328.578 102.609 328.34 103.036 328.191 103.233C328.026 103.451 327.599 103.87 326.448 104.24L329.508 113.76ZM338.578 101.6C338.578 98.8049 337.677 96.2068 335.861 94.0389C334.119 91.9598 331.754 90.5325 329.183 89.5372L325.573 98.8628C327.135 99.4675 327.871 100.074 328.196 100.461C328.446 100.76 328.578 101.062 328.578 101.6H338.578ZM329.366 89.6122C324.854 87.6571 317.816 85.7754 308.572 83.8998L306.584 93.7002C315.74 95.5579 321.902 97.2763 325.39 98.7878L329.366 89.6122ZM308.626 83.911C297.54 81.5355 288.486 79.1182 281.411 76.674L278.146 86.1259C285.737 88.7485 295.216 91.2645 306.53 93.689L308.626 83.911ZM281.487 76.701C274.945 74.3222 269.219 70.4593 264.274 65.0325L256.882 71.7674C262.871 78.3407 269.945 83.1445 278.069 86.099L281.487 76.701ZM264.274 65.0325C259.852 60.1785 257.378 53.3632 257.378 44H247.378C247.378 55.1701 250.371 64.6215 256.882 71.7674L264.274 65.0325ZM257.378 44C257.378 30.4495 262.454 21.1165 272.379 15.07L267.177 6.52995C253.902 14.6168 247.378 27.4171 247.378 44H257.378ZM272.393 15.0616C283.138 8.46836 296.965 4.99999 314.178 4.99999V-5.00001C295.658 -5.00001 279.885 -1.26837 267.163 6.53838L272.393 15.0616Z" fill="#23B290"/>
</svg>
